<svg width="16" height="17" viewBox="0 0 16 17" fill="none" xmlns="http://www.w3.org/2000/svg">
<path d="M14.4 2.9C14.6122 2.9 14.8157 2.98429 14.9657 3.13431C15.1158 3.28434 15.2 3.48783 15.2 3.7C15.2 3.91217 15.1158 4.11566 14.9657 4.26569C14.8157 4.41571 14.6122 4.5 14.4 4.5H13.6L13.5976 4.5568L12.8512 15.0136C12.8225 15.4173 12.6419 15.7951 12.3457 16.0709C12.0496 16.3467 11.6599 16.5 11.2552 16.5H4.74405C4.33936 16.5 3.9497 16.3467 3.65356 16.0709C3.35741 15.7951 3.17678 15.4173 3.14805 15.0136L2.40165 4.5576C2.40044 4.53842 2.3999 4.51921 2.40005 4.5H1.60005C1.38788 4.5 1.18439 4.41571 1.03436 4.26569C0.884334 4.11566 0.800049 3.91217 0.800049 3.7C0.800049 3.48783 0.884334 3.28434 1.03436 3.13431C1.18439 2.98429 1.38788 2.9 1.60005 2.9H14.4ZM11.9976 4.5H4.00245L4.74485 14.9H11.2552L11.9976 4.5ZM9.60005 0.5C9.81222 0.5 10.0157 0.584285 10.1657 0.734315C10.3158 0.884344 10.4 1.08783 10.4 1.3C10.4 1.51217 10.3158 1.71566 10.1657 1.86569C10.0157 2.01571 9.81222 2.1 9.60005 2.1H6.40005C6.18788 2.1 5.98439 2.01571 5.83436 1.86569C5.68433 1.71566 5.60005 1.51217 5.60005 1.3C5.60005 1.08783 5.68433 0.884344 5.83436 0.734315C5.98439 0.584285 6.18788 0.5 6.40005 0.5H9.60005Z" fill="red"/>
</svg>
