<svg width="21" height="21" viewBox="0 0 21 21" fill="none" xmlns="http://www.w3.org/2000/svg">
<path fill-rule="evenodd" clip-rule="evenodd" d="M1.19824 2.62444C1.19824 2.21822 1.35961 1.82863 1.64686 1.54139C1.9341 1.25415 2.32369 1.09278 2.72991 1.09278H17.9982C18.1996 1.09245 18.399 1.13183 18.585 1.20866C18.7711 1.2855 18.9402 1.39828 19.0826 1.54056C19.225 1.68283 19.338 1.8518 19.4151 2.03778C19.4921 2.22377 19.5317 2.42313 19.5316 2.62444V17.8928C19.5318 18.0941 19.4923 18.2935 19.4154 18.4796C19.3385 18.6657 19.2256 18.8348 19.0833 18.9772C18.9409 19.1196 18.7719 19.2326 18.5859 19.3096C18.3998 19.3866 18.2004 19.4262 17.9991 19.4261H2.72991C2.5287 19.4261 2.32946 19.3865 2.14357 19.3094C1.95769 19.2324 1.7888 19.1195 1.64656 18.9772C1.50432 18.8349 1.39152 18.6659 1.31459 18.48C1.23767 18.2941 1.19813 18.0948 1.19824 17.8936V2.62444ZM8.45491 8.08278H10.9374V9.32944C11.2957 8.61278 12.2124 7.96778 13.5899 7.96778C16.2307 7.96778 16.8566 9.39528 16.8566 12.0144V16.8661H14.1841V12.6111C14.1841 11.1194 13.8257 10.2778 12.9157 10.2778C11.6532 10.2778 11.1282 11.1853 11.1282 12.6111V16.8661H8.45491V8.08278ZM3.87158 16.7519H6.54491V7.96778H3.87158V16.7511V16.7519ZM6.92741 5.10278C6.93245 5.33167 6.89172 5.55926 6.80761 5.7722C6.7235 5.98514 6.5977 6.17914 6.4376 6.3428C6.2775 6.50647 6.08632 6.6365 5.87529 6.72528C5.66425 6.81406 5.43761 6.85979 5.20866 6.85979C4.97971 6.85979 4.75307 6.81406 4.54203 6.72528C4.33099 6.6365 4.13982 6.50647 3.97972 6.3428C3.81962 6.17914 3.69382 5.98514 3.60971 5.7722C3.5256 5.55926 3.48487 5.33167 3.48991 5.10278C3.4998 4.65349 3.68523 4.22593 4.00648 3.91168C4.32773 3.59743 4.75926 3.42146 5.20866 3.42146C5.65806 3.42146 6.08959 3.59743 6.41084 3.91168C6.73209 4.22593 6.91752 4.65349 6.92741 5.10278V5.10278Z" fill="white"/>
</svg>
