<svg width="28" height="28" viewBox="0 0 28 28" fill="none" xmlns="http://www.w3.org/2000/svg">
<path d="M9.77946 17.5579H17.5961M9.77946 20.9079H13.6878M21.5045 3.0412H5.87112C5.57496 3.0412 5.29094 3.15885 5.08152 3.36826C4.8721 3.57768 4.75446 3.86171 4.75446 4.15787V24.2579C4.75446 24.554 4.8721 24.8381 5.08152 25.0475C5.29094 25.2569 5.57496 25.3745 5.87112 25.3745H21.5045C21.8006 25.3745 22.0846 25.2569 22.2941 25.0475C22.5035 24.8381 22.6211 24.554 22.6211 24.2579V4.15787C22.6211 3.86171 22.5035 3.57768 22.2941 3.36826C22.0846 3.15885 21.8006 3.0412 21.5045 3.0412Z" stroke="#7A47AB" stroke-width="2.23333" stroke-linecap="round" stroke-linejoin="round"/>
<path d="M17.0378 8.06622L12.5711 12.5329L10.3378 10.2996" stroke="#7A47AB" stroke-width="2.23333" stroke-linecap="round" stroke-linejoin="round"/>
</svg>
