<svg width="24" height="25" viewBox="0 0 24 25" fill="none" xmlns="http://www.w3.org/2000/svg">
<path d="M13 3.25V10.25H20M6 7.25H5C4.73478 7.25 4.48043 7.35536 4.29289 7.54289C4.10536 7.73043 4 7.98478 4 8.25V20.25C4 20.5152 4.10536 20.7696 4.29289 20.9571C4.48043 21.1446 4.73478 21.25 5 21.25H14C14.2652 21.25 14.5196 21.1446 14.7071 20.9571C14.8946 20.7696 15 20.5152 15 20.25V19.25M8 4.25V16.25C8 16.5152 8.10536 16.7696 8.29289 16.9571C8.48043 17.1446 8.73478 17.25 9 17.25H19C19.2652 17.25 19.5196 17.1446 19.7071 16.9571C19.8946 16.7696 20 16.5152 20 16.25V9.639C20 9.38869 19.9062 9.14748 19.737 8.963L14.797 3.574C14.7033 3.47187 14.5894 3.39033 14.4625 3.33456C14.3357 3.27878 14.1986 3.24999 14.06 3.25H9C8.73478 3.25 8.48043 3.35536 8.29289 3.54289C8.10536 3.73043 8 3.98478 8 4.25V4.25Z" stroke="#BEBEBE" stroke-width="2" stroke-linejoin="round"/>
</svg>
