<svg width="25" height="25" viewBox="0 0 25 25" fill="none" xmlns="http://www.w3.org/2000/svg">
<path d="M13.0572 3.25V10.25H20.0572M6.05724 7.25H5.05724C4.79203 7.25 4.53767 7.35536 4.35014 7.54289C4.1626 7.73043 4.05724 7.98478 4.05724 8.25V20.25C4.05724 20.5152 4.1626 20.7696 4.35014 20.9571C4.53767 21.1446 4.79203 21.25 5.05724 21.25H14.0572C14.3225 21.25 14.5768 21.1446 14.7643 20.9571C14.9519 20.7696 15.0572 20.5152 15.0572 20.25V19.25M8.05724 4.25V16.25C8.05724 16.5152 8.1626 16.7696 8.35014 16.9571C8.53767 17.1446 8.79203 17.25 9.05724 17.25H19.0572C19.3225 17.25 19.5768 17.1446 19.7644 16.9571C19.9519 16.7696 20.0572 16.5152 20.0572 16.25V9.639C20.0573 9.38869 19.9634 9.14748 19.7942 8.963L14.8542 3.574C14.7606 3.47187 14.6467 3.39033 14.5198 3.33456C14.3929 3.27878 14.2558 3.24999 14.1172 3.25H9.05724C8.79203 3.25 8.53767 3.35536 8.35014 3.54289C8.1626 3.73043 8.05724 3.98478 8.05724 4.25V4.25Z" stroke="white" stroke-width="2" stroke-linejoin="round"/>
</svg>
