<svg width="16" height="17" viewBox="0 0 16 17" fill="none" xmlns="http://www.w3.org/2000/svg">
<path d="M14.25 10.25V13.75C14.25 14.0815 14.1183 14.3995 13.8839 14.6339C13.6495 14.8683 13.3315 15 13 15H3C2.66848 15 2.35054 14.8683 2.11612 14.6339C1.8817 14.3995 1.75 14.0815 1.75 13.75V10.25C1.75 10.0511 1.82902 9.86032 1.96967 9.71967C2.11032 9.57902 2.30109 9.5 2.5 9.5C2.69891 9.5 2.88968 9.57902 3.03033 9.71967C3.17098 9.86032 3.25 10.0511 3.25 10.25V13.5H12.75V10.25C12.75 10.0511 12.829 9.86032 12.9697 9.71967C13.1103 9.57902 13.3011 9.5 13.5 9.5C13.6989 9.5 13.8897 9.57902 14.0303 9.71967C14.171 9.86032 14.25 10.0511 14.25 10.25ZM7.46938 10.7806C7.53905 10.8505 7.62185 10.906 7.71301 10.9439C7.80418 10.9817 7.90191 11.0012 8.00062 11.0012C8.09934 11.0012 8.19707 10.9817 8.28824 10.9439C8.3794 10.906 8.4622 10.8505 8.53187 10.7806L11.0319 8.28062C11.1728 8.13973 11.2519 7.94863 11.2519 7.74937C11.2519 7.55012 11.1728 7.35902 11.0319 7.21812C10.891 7.07723 10.6999 6.99807 10.5006 6.99807C10.3014 6.99807 10.1103 7.07723 9.96937 7.21812L8.75 8.4375V3.25C8.75 3.05109 8.67098 2.86032 8.53033 2.71967C8.38968 2.57902 8.19891 2.5 8 2.5C7.80109 2.5 7.61032 2.57902 7.46967 2.71967C7.32902 2.86032 7.25 3.05109 7.25 3.25V8.4375L6.03062 7.21938C5.88973 7.07848 5.69863 6.99932 5.49937 6.99932C5.30012 6.99932 5.10902 7.07848 4.96812 7.21938C4.82723 7.36027 4.74807 7.55137 4.74807 7.75063C4.74807 7.94988 4.82723 8.14098 4.96812 8.28188L7.46938 10.7806Z" fill="#DDA10F"/>
</svg>
