<svg width="24" height="24" viewBox="0 0 24 24" fill="none" xmlns="http://www.w3.org/2000/svg">
<path d="M5 23.7001C4.45 23.7001 3.979 23.5044 3.587 23.1131C3.195 22.7217 2.99933 22.2507 3 21.7001V7.70005C3 7.15005 3.196 6.67905 3.588 6.28705C3.98 5.89505 4.45067 5.69938 5 5.70005H13.925L11.925 7.70005H5.5C5.22386 7.70005 5 7.92391 5 8.20005V21.7001H19V14.75L21 12.75V21.7001C21 22.25 20.804 22.7211 20.412 23.1131C20.02 23.5051 19.5493 23.7007 19 23.7001H5ZM16.175 6.27505L17.6 7.67505L11 14.275V15.7H12.4L19.025 9.07505L20.45 10.475L13.25 17.7H9V13.45L16.175 6.27505ZM20.45 10.475L16.175 6.27505L18.675 3.77505C19.075 3.37505 19.5543 3.17505 20.113 3.17505C20.6717 3.17505 21.1423 3.37505 21.525 3.77505L22.925 5.20005C23.3083 5.58338 23.5 6.05005 23.5 6.60005C23.5 7.15005 23.3083 7.61672 22.925 8.00005L20.45 10.475Z" fill="#BEBEBE"/>
</svg>
