<svg width="25" height="24" viewBox="0 0 25 24" fill="none" xmlns="http://www.w3.org/2000/svg">
<path d="M5.05725 23.7001C4.50725 23.7001 4.03624 23.5044 3.64424 23.1131C3.25224 22.7217 3.05658 22.2507 3.05725 21.7001V7.70005C3.05725 7.15005 3.25325 6.67905 3.64525 6.28705C4.03725 5.89505 4.50791 5.69938 5.05725 5.70005H13.9822L11.9822 7.70005H5.55725C5.2811 7.70005 5.05725 7.92391 5.05725 8.20005V21.7001H19.0572V14.75L21.0572 12.75V21.7001C21.0572 22.25 20.8612 22.7211 20.4692 23.1131C20.0772 23.5051 19.6066 23.7007 19.0572 23.7001H5.05725ZM16.2322 6.27505L17.6572 7.67505L11.0572 14.275V15.7H12.4572L19.0822 9.07505L20.5072 10.475L13.3072 17.7H9.05725V13.45L16.2322 6.27505ZM20.5072 10.475L16.2322 6.27505L18.7322 3.77505C19.1322 3.37505 19.6116 3.17505 20.1702 3.17505C20.7289 3.17505 21.1996 3.37505 21.5822 3.77505L22.9822 5.20005C23.3656 5.58338 23.5572 6.05005 23.5572 6.60005C23.5572 7.15005 23.3656 7.61672 22.9822 8.00005L20.5072 10.475Z" fill="white"/>
</svg>
