<svg width="25" height="25" viewBox="0 0 25 25" fill="none" xmlns="http://www.w3.org/2000/svg">
<g opacity="0.8">
<path d="M2.27535 6.60228L11.2753 11.4371C11.5778 11.5991 11.9689 11.6759 12.3625 11.6759C12.7561 11.6759 13.1473 11.5991 13.4497 11.4371L22.4497 6.60228C23.0365 6.28668 23.591 5.05908 22.5145 5.05908H2.21175C1.13535 5.05908 1.68975 6.28668 2.27535 6.60228ZM22.7222 9.24588L13.4497 14.0783C13.0417 14.2919 12.7561 14.3171 12.3625 14.3171C11.9689 14.3171 11.6833 14.2919 11.2753 14.0783C10.8673 13.8647 2.71575 9.59148 2.04975 9.24468C1.58175 8.99988 1.58655 9.28668 1.58655 9.50748V18.2591C1.58655 18.7631 2.26575 19.4591 2.78655 19.4591H21.9865C22.5073 19.4591 23.1865 18.7631 23.1865 18.2591V9.50868C23.1865 9.28788 23.1913 9.00108 22.7222 9.24588Z" fill="white"/>
</g>
</svg>
