<svg width="14" height="13" viewBox="0 0 14 13" fill="none" xmlns="http://www.w3.org/2000/svg">
<path d="M0.73045 3.07143L0.73045 3.5C0.73045 3.55684 0.753027 3.61134 0.793213 3.65153C0.833399 3.69171 0.887904 3.71429 0.944736 3.71429L1.58759 3.71429L1.58759 4.03572C1.58759 4.21323 1.73151 4.35715 1.90902 4.35715L12.409 4.35715C12.5865 4.35715 12.7304 4.21323 12.7304 4.03572L12.7304 3.71429L13.3733 3.71429C13.4301 3.71429 13.4846 3.69171 13.5248 3.65153C13.565 3.61134 13.5876 3.55684 13.5876 3.50001L13.5876 3.07143C13.5876 3.02904 13.575 2.9876 13.5515 2.95235C13.5279 2.91711 13.4944 2.88964 13.4552 2.87343L7.24096 0.516292C7.18849 0.494568 7.12955 0.494568 7.07708 0.516292L0.862798 2.87343C0.823626 2.88964 0.790143 2.91711 0.766584 2.95235C0.743026 2.9876 0.73045 3.02904 0.73045 3.07143ZM1.37331 11.2143L12.9447 11.2143C13.2998 11.2143 13.5876 11.5021 13.5876 11.8571L13.5876 12.2857C13.5876 12.3425 13.565 12.3971 13.5248 12.4372C13.4846 12.4774 13.4301 12.5 13.3733 12.5L0.944735 12.5C0.887903 12.5 0.833399 12.4774 0.793212 12.4372C0.753026 12.397 0.73045 12.3425 0.73045 12.2857L0.73045 11.8571C0.73045 11.5021 1.01826 11.2143 1.37331 11.2143ZM11.4447 4.78572L11.4447 9.92857L12.409 9.92857C12.5865 9.92857 12.7304 10.0725 12.7304 10.25L12.7304 10.7857L1.58759 10.7857L1.58759 10.25C1.58759 10.0725 1.73151 9.92857 1.90902 9.92857L2.87331 9.92857L2.87331 4.78572L4.58759 4.78572L4.58759 9.92857L6.30187 9.92857L6.30188 4.78572L8.01616 4.78572L8.01616 9.92857L9.73044 9.92857L9.73044 4.78572L11.4447 4.78572Z" fill="#FDF9F3"/>
</svg>
