<svg width="27" height="28" viewBox="0 0 27 28" fill="none" xmlns="http://www.w3.org/2000/svg">
<mask id="mask0_410_3542" style="mask-type:luminance" maskUnits="userSpaceOnUse" x="1" y="4" width="25" height="20">
<path d="M23.4756 5.22382H3.60058C2.99077 5.22382 2.49641 5.71817 2.49641 6.32798V21.7863C2.49641 22.3961 2.99077 22.8905 3.60058 22.8905H23.4756C24.0854 22.8905 24.5798 22.3961 24.5798 21.7863V6.32798C24.5798 5.71817 24.0854 5.22382 23.4756 5.22382Z" stroke="white" stroke-width="2.20833" stroke-linejoin="round"/>
<path d="M9.6735 14.6092C10.2592 14.6092 10.8209 14.3766 11.235 13.9624C11.6492 13.5483 11.8818 12.9866 11.8818 12.4009C11.8818 11.8152 11.6492 11.2535 11.235 10.8394C10.8209 10.4252 10.2592 10.1926 9.6735 10.1926C9.08781 10.1926 8.52611 10.4252 8.11197 10.8394C7.69783 11.2535 7.46516 11.8152 7.46516 12.4009C7.46516 12.9866 7.69783 13.5483 8.11197 13.9624C8.52611 14.3766 9.08781 14.6092 9.6735 14.6092Z" fill="white" stroke="white" stroke-width="2.20833" stroke-linejoin="round"/>
<path d="M12.986 17.9217C12.986 17.0432 12.637 16.2007 12.0158 15.5794C11.3946 14.9582 10.552 14.6092 9.67349 14.6092C8.79496 14.6092 7.95242 14.9582 7.3312 15.5794C6.70999 16.2007 6.36099 17.0432 6.36099 17.9217M15.7464 11.8488H20.1631M16.8506 16.2655H20.1631" stroke="white" stroke-width="2.20833" stroke-linecap="round" stroke-linejoin="round"/>
</mask>
<g mask="url(#mask0_410_3542)">
<path d="M0.288071 0.807129H26.7881V27.3071H0.288071V0.807129Z" fill="#7A47AB"/>
</g>
</svg>
