<svg width="18" height="18" viewBox="0 0 18 18" fill="none" xmlns="http://www.w3.org/2000/svg">
<path d="M17.27 5.80971C17.2606 5.10266 17.1282 4.40264 16.8788 3.74096C16.6626 3.18284 16.3323 2.67596 15.909 2.25272C15.4858 1.82948 14.9789 1.49917 14.4208 1.28292C13.7676 1.03772 13.0776 0.905145 12.38 0.890823C11.4819 0.85068 11.1972 0.839478 8.91747 0.839478C6.63774 0.839478 6.34553 0.839478 5.45399 0.890823C4.75678 0.90525 4.06706 1.03783 3.41418 1.28292C2.85597 1.49902 2.34901 1.82927 1.92575 2.25253C1.50249 2.6758 1.17224 3.18275 0.956133 3.74096C0.710451 4.39364 0.578159 5.08351 0.564974 5.78077C0.524831 6.67979 0.512695 6.96452 0.512695 9.24426C0.512695 11.524 0.512695 11.8153 0.564974 12.7077C0.578978 13.406 0.710608 14.095 0.956133 14.7494C1.1726 15.3075 1.5031 15.8142 1.9265 16.2373C2.34991 16.6604 2.85691 16.9905 3.41511 17.2065C4.0662 17.4616 4.75604 17.6036 5.45493 17.6266C6.35394 17.6668 6.63867 17.6789 8.91841 17.6789C11.1981 17.6789 11.4903 17.6789 12.3819 17.6266C13.0794 17.6129 13.7695 17.4806 14.4226 17.2355C14.9806 17.019 15.4874 16.6886 15.9106 16.2654C16.3338 15.8421 16.6642 15.3354 16.8807 14.7774C17.1262 14.1239 17.2578 13.435 17.2718 12.7357C17.312 11.8377 17.3241 11.5529 17.3241 9.27226C17.3223 6.99253 17.3223 6.70312 17.27 5.80971ZM8.91187 13.5554C6.52758 13.5554 4.59606 11.6239 4.59606 9.23959C4.59606 6.85529 6.52758 4.92377 8.91187 4.92377C10.0565 4.92377 11.1542 5.37847 11.9636 6.18785C12.773 6.99722 13.2277 8.09496 13.2277 9.23959C13.2277 10.3842 12.773 11.482 11.9636 12.2913C11.1542 13.1007 10.0565 13.5554 8.91187 13.5554ZM13.3995 5.7705C13.2673 5.77063 13.1363 5.74468 13.0142 5.69415C12.892 5.64362 12.7811 5.56949 12.6876 5.47602C12.5941 5.38254 12.52 5.27155 12.4694 5.1494C12.4189 5.02725 12.393 4.89633 12.3931 4.76413C12.3931 4.63204 12.4191 4.50123 12.4697 4.37919C12.5202 4.25715 12.5943 4.14626 12.6877 4.05285C12.7811 3.95945 12.892 3.88535 13.0141 3.8348C13.1361 3.78425 13.2669 3.75823 13.399 3.75823C13.5311 3.75823 13.6619 3.78425 13.7839 3.8348C13.906 3.88535 14.0169 3.95945 14.1103 4.05285C14.2037 4.14626 14.2778 4.25715 14.3283 4.37919C14.3789 4.50123 14.4049 4.63204 14.4049 4.76413C14.4049 5.32053 13.9549 5.7705 13.3995 5.7705Z" fill="white"/>
</svg>
