<svg width="27" height="27" viewBox="0 0 27 27" fill="none" xmlns="http://www.w3.org/2000/svg">
<path d="M13.5271 2.39587C7.43205 2.39587 2.49643 7.34254 2.49643 13.4375C2.49643 19.5325 7.43205 24.4792 13.5271 24.4792C19.6331 24.4792 24.5798 19.5325 24.5798 13.4375C24.5798 7.34254 19.6331 2.39587 13.5271 2.39587ZM21.1789 9.02087H17.9216C17.5761 7.65332 17.0643 6.33322 16.3979 5.09004C18.412 5.78346 20.1092 7.17882 21.1789 9.02087ZM13.5381 4.64837C14.4546 5.97337 15.1723 7.44192 15.6471 9.02087H11.4291C11.9039 7.44192 12.6216 5.97337 13.5381 4.64837ZM4.99185 15.6459C4.81518 14.9392 4.70476 14.1994 4.70476 13.4375C4.70476 12.6757 4.81518 11.9359 4.99185 11.2292H8.72393C8.6356 11.958 8.56935 12.6867 8.56935 13.4375C8.56935 14.1884 8.6356 14.9171 8.72393 15.6459H4.99185ZM5.89726 17.8542H9.15455C9.50789 19.2344 10.0158 20.5594 10.6783 21.785C8.66206 21.0954 6.9637 19.6991 5.89726 17.8542ZM9.15455 9.02087H5.89726C6.9637 7.17601 8.66206 5.77967 10.6783 5.09004C10.0119 6.33322 9.50013 7.65332 9.15455 9.02087ZM13.5381 22.2267C12.6216 20.9017 11.9039 19.4332 11.4291 17.8542H15.6471C15.1723 19.4332 14.4546 20.9017 13.5381 22.2267ZM16.1218 15.6459H10.9543C10.855 14.9171 10.7777 14.1884 10.7777 13.4375C10.7777 12.6867 10.855 11.9469 10.9543 11.2292H16.1218C16.2212 11.9469 16.2985 12.6867 16.2985 13.4375C16.2985 14.1884 16.2212 14.9171 16.1218 15.6459ZM16.3979 21.785C17.0604 20.5594 17.5683 19.2344 17.9216 17.8542H21.1789C20.1092 19.6963 18.412 21.0916 16.3979 21.785ZM18.3523 15.6459C18.4406 14.9171 18.5068 14.1884 18.5068 13.4375C18.5068 12.6867 18.4406 11.958 18.3523 11.2292H22.0843C22.261 11.9359 22.3714 12.6757 22.3714 13.4375C22.3714 14.1994 22.261 14.9392 22.0843 15.6459H18.3523Z" fill="#7A47AB"/>
</svg>
