<svg width="21" height="21" viewBox="0 0 21 21" fill="none" xmlns="http://www.w3.org/2000/svg">
<path fill-rule="evenodd" clip-rule="evenodd" d="M1.22131 2.62444C1.22131 2.21822 1.38269 1.82863 1.66993 1.54139C1.95717 1.25415 2.34676 1.09278 2.75298 1.09278H18.0213C18.2226 1.09245 18.422 1.13183 18.6081 1.20866C18.7942 1.2855 18.9633 1.39828 19.1057 1.54056C19.2481 1.68283 19.3611 1.8518 19.4381 2.03778C19.5152 2.22377 19.5548 2.42313 19.5546 2.62444V17.8928C19.5549 18.0941 19.5154 18.2935 19.4385 18.4796C19.3615 18.6657 19.2487 18.8348 19.1063 18.9772C18.964 19.1196 18.795 19.2326 18.6089 19.3096C18.4229 19.3866 18.2235 19.4262 18.0221 19.4261H2.75298C2.55177 19.4261 2.35253 19.3865 2.16664 19.3094C1.98076 19.2324 1.81187 19.1195 1.66963 18.9772C1.52739 18.8349 1.41459 18.6659 1.33767 18.48C1.26074 18.2941 1.2212 18.0948 1.22131 17.8936V2.62444ZM8.47798 8.08278H10.9605V9.32944C11.3188 8.61278 12.2355 7.96778 13.613 7.96778C16.2538 7.96778 16.8796 9.39528 16.8796 12.0144V16.8661H14.2071V12.6111C14.2071 11.1194 13.8488 10.2778 12.9388 10.2778C11.6763 10.2778 11.1513 11.1853 11.1513 12.6111V16.8661H8.47798V8.08278ZM3.89465 16.7519H6.56798V7.96778H3.89465V16.7511V16.7519ZM6.95048 5.10278C6.95552 5.33167 6.91479 5.55926 6.83068 5.7722C6.74657 5.98514 6.62077 6.17914 6.46067 6.3428C6.30057 6.50647 6.1094 6.6365 5.89836 6.72528C5.68732 6.81406 5.46068 6.85979 5.23173 6.85979C5.00278 6.85979 4.77614 6.81406 4.5651 6.72528C4.35407 6.6365 4.16289 6.50647 4.00279 6.3428C3.84269 6.17914 3.71689 5.98514 3.63278 5.7722C3.54867 5.55926 3.50794 5.33167 3.51298 5.10278C3.52287 4.65349 3.7083 4.22593 4.02955 3.91168C4.3508 3.59743 4.78233 3.42146 5.23173 3.42146C5.68113 3.42146 6.11266 3.59743 6.43391 3.91168C6.75516 4.22593 6.94059 4.65349 6.95048 5.10278Z" fill="white"/>
</svg>
