<svg width="21" height="21" viewBox="0 0 21 21" fill="none" xmlns="http://www.w3.org/2000/svg">
<path d="M17.9241 2.23438H15.905V1.22486C15.905 0.957114 15.7987 0.700338 15.6094 0.511015C15.42 0.321692 15.1633 0.215332 14.8955 0.215332C14.6278 0.215332 14.371 0.321692 14.1817 0.511015C13.9924 0.700338 13.886 0.957114 13.886 1.22486V2.23438H7.82884V1.22486C7.82884 0.957114 7.72248 0.700338 7.53316 0.511015C7.34384 0.321692 7.08706 0.215332 6.81932 0.215332C6.55158 0.215332 6.2948 0.321692 6.10548 0.511015C5.91615 0.700338 5.80979 0.957114 5.80979 1.22486V2.23438H3.79074C2.98752 2.23438 2.21719 2.55346 1.64922 3.12143C1.08125 3.6894 0.762169 4.45973 0.762169 5.26296V17.3773C0.762169 18.1805 1.08125 18.9508 1.64922 19.5188C2.21719 20.0868 2.98752 20.4058 3.79074 20.4058H17.9241C18.7273 20.4058 19.4977 20.0868 20.0656 19.5188C20.6336 18.9508 20.9527 18.1805 20.9527 17.3773V5.26296C20.9527 4.45973 20.6336 3.6894 20.0656 3.12143C19.4977 2.55346 18.7273 2.23438 17.9241 2.23438ZM18.9336 17.3773C18.9336 17.645 18.8273 17.9018 18.6379 18.0911C18.4486 18.2804 18.1918 18.3868 17.9241 18.3868H3.79074C3.523 18.3868 3.26622 18.2804 3.0769 18.0911C2.88758 17.9018 2.78122 17.645 2.78122 17.3773V10.3106H18.9336V17.3773ZM18.9336 8.29153H2.78122V5.26296C2.78122 4.99521 2.88758 4.73844 3.0769 4.54912C3.26622 4.35979 3.523 4.25343 3.79074 4.25343H5.80979V5.26296C5.80979 5.5307 5.91615 5.78748 6.10548 5.9768C6.2948 6.16612 6.55158 6.27248 6.81932 6.27248C7.08706 6.27248 7.34384 6.16612 7.53316 5.9768C7.72248 5.78748 7.82884 5.5307 7.82884 5.26296V4.25343H13.886V5.26296C13.886 5.5307 13.9924 5.78748 14.1817 5.9768C14.371 6.16612 14.6278 6.27248 14.8955 6.27248C15.1633 6.27248 15.42 6.16612 15.6094 5.9768C15.7987 5.78748 15.905 5.5307 15.905 5.26296V4.25343H17.9241C18.1918 4.25343 18.4486 4.35979 18.6379 4.54912C18.8273 4.73844 18.9336 4.99521 18.9336 5.26296V8.29153Z" fill="#655395"/>
</svg>
