<svg width="25" height="25" viewBox="0 0 25 25" fill="none" xmlns="http://www.w3.org/2000/svg">
<path d="M20.8746 17.3995L16.8096 13.7035C16.6175 13.5289 16.365 13.4357 16.1054 13.4437C15.8459 13.4518 15.5996 13.5603 15.4186 13.7465L13.0256 16.2075C12.4496 16.0975 11.2916 15.7365 10.0996 14.5475C8.90761 13.3545 8.54661 12.1935 8.43961 11.6215L10.8986 9.22752C11.085 9.04664 11.1937 8.80034 11.2018 8.54072C11.2098 8.28111 11.1165 8.02856 10.9416 7.83652L7.24661 3.77252C7.07165 3.57987 6.82849 3.46302 6.56876 3.44678C6.30904 3.43053 6.05321 3.51617 5.85561 3.68552L3.68561 5.54652C3.51272 5.72003 3.40953 5.95097 3.39561 6.19552C3.38061 6.44552 3.09461 12.3675 7.68661 16.9615C11.6926 20.9665 16.7106 21.2595 18.0926 21.2595C18.2946 21.2595 18.4186 21.2535 18.4516 21.2515C18.6961 21.2378 18.9269 21.1342 19.0996 20.9605L20.9596 18.7895C21.1296 18.5926 21.2159 18.3369 21.2 18.0772C21.1841 17.8175 21.0674 17.5743 20.8746 17.3995Z" fill="white"/>
</svg>
