<svg width="25" height="24" viewBox="0 0 25 24" fill="none" xmlns="http://www.w3.org/2000/svg">
<path d="M12.0572 2C6.53424 2 2.05724 6.477 2.05724 12C2.05724 17.523 6.53424 22 12.0572 22C17.5802 22 22.0572 17.523 22.0572 12C22.0572 6.477 17.5802 2 12.0572 2Z" stroke="white" stroke-width="2" stroke-linecap="round" stroke-linejoin="round"/>
<path d="M4.32825 18.346C4.32825 18.346 6.55725 15.5 12.0572 15.5C17.5572 15.5 19.7872 18.346 19.7872 18.346M12.0572 12C12.8529 12 13.616 11.6839 14.1786 11.1213C14.7412 10.5587 15.0572 9.79565 15.0572 9C15.0572 8.20435 14.7412 7.44129 14.1786 6.87868C13.616 6.31607 12.8529 6 12.0572 6C11.2616 6 10.4985 6.31607 9.93593 6.87868C9.37332 7.44129 9.05725 8.20435 9.05725 9C9.05725 9.79565 9.37332 10.5587 9.93593 11.1213C10.4985 11.6839 11.2616 12 12.0572 12V12Z" stroke="white" stroke-width="2" stroke-linecap="round" stroke-linejoin="round"/>
</svg>
