<svg width="21" height="21" viewBox="0 0 21 21" fill="none" xmlns="http://www.w3.org/2000/svg">
<g clip-path="url(#clip0_198_1311)">
<mask id="path-1-inside-1_198_1311" fill="white">
<path d="M10.4947 0.213989C10.7865 0.214396 11.0781 0.227291 11.3687 0.252639C12.295 0.332431 12.9758 1.01815 13.1877 1.8223L13.5468 3.20246C13.5692 3.28474 13.6453 3.39944 13.8111 3.48173C14.0991 3.62386 14.3771 3.78469 14.6439 3.96298C14.7973 4.06521 14.9344 4.07518 15.0167 4.0515L16.3919 3.67373C17.1948 3.4543 18.1274 3.69991 18.661 4.45918C18.9976 4.93918 19.2918 5.44661 19.5387 5.97773C19.9314 6.81929 19.6771 7.75061 19.0849 8.33534L18.07 9.34022C18.0089 9.40007 17.9478 9.5235 17.9603 9.70677C17.9802 10.0272 17.9802 10.3488 17.9603 10.6693C17.9478 10.8525 18.0077 10.976 18.07 11.0358L19.0849 12.0407C19.6771 12.6254 19.9314 13.5567 19.5387 14.3983C19.2913 14.9289 18.9976 15.4367 18.661 15.9156C18.1274 16.6761 17.1948 16.9217 16.3919 16.7011L15.018 16.3245C14.9344 16.3008 14.7973 16.3108 14.6439 16.4131C14.3771 16.5914 14.0989 16.7522 13.8111 16.8943C13.6453 16.9766 13.5692 17.0913 13.548 17.1736L13.1865 18.5525C12.977 19.3579 12.295 20.0436 11.3687 20.1234C10.7872 20.1745 10.2023 20.1745 9.62076 20.1234C8.69442 20.0436 8.01369 19.3579 7.80299 18.5525L7.44268 17.1736C7.42024 17.0913 7.34418 16.9766 7.17837 16.8943C6.89027 16.7528 6.61203 16.592 6.34553 16.4131C6.19218 16.3108 6.05504 16.3008 5.97276 16.3245L4.59759 16.7023C3.79468 16.9217 2.86211 16.6761 2.3285 15.9168C1.99254 15.437 1.69887 14.9289 1.45078 14.3983C1.05805 13.5567 1.31239 12.6254 1.90335 12.0407L2.91946 11.0358C2.98179 10.976 3.04164 10.8525 3.02917 10.6693C3.00922 10.3487 3.00922 10.0273 3.02917 9.70677C3.04164 9.5235 2.98179 9.40007 2.91946 9.34022L1.90335 8.33534C1.31239 7.75061 1.05805 6.81929 1.45078 5.97773C1.69779 5.44694 1.99152 4.93918 2.3285 4.46043C2.86211 3.69991 3.79468 3.4543 4.59759 3.67498L5.97151 4.0515C6.05504 4.07518 6.19218 4.06521 6.34553 3.96298C6.61234 3.78469 6.89037 3.62386 7.17837 3.48173C7.34418 3.39944 7.42024 3.28474 7.44143 3.20246L7.80299 1.82355C8.01244 1.01815 8.69442 0.332431 9.62076 0.251392C9.90876 0.226457 10.2005 0.213989 10.4947 0.213989ZM9.78283 2.11529C9.73795 2.11903 9.64818 2.16017 9.61203 2.29731L9.25172 3.67498C9.06844 4.37441 8.56725 4.88059 8.00746 5.15737C7.79177 5.26459 7.58356 5.38552 7.38408 5.51892C6.86418 5.86552 6.17473 6.0463 5.47779 5.85555L4.10263 5.47778C3.96673 5.44038 3.88444 5.49773 3.85951 5.53389C3.58522 5.92287 3.34585 6.33679 3.14512 6.76817C3.12766 6.80682 3.11894 6.90531 3.21868 7.00505L4.23478 8.00994C4.7472 8.51612 4.93546 9.20308 4.89556 9.82521C4.8806 10.0668 4.8806 10.3092 4.89556 10.5508C4.93546 11.173 4.7472 11.8599 4.23478 12.3661L3.21868 13.371C3.11769 13.4707 3.12766 13.5692 3.14512 13.6079C3.34709 14.0392 3.58522 14.4519 3.85951 14.8409C3.88444 14.8783 3.96548 14.9357 4.10263 14.8982L5.47655 14.5205C6.17473 14.3297 6.86418 14.5105 7.38408 14.8571C7.58481 14.9905 7.79302 15.1114 8.0087 15.2187C8.566 15.4954 9.06844 16.0029 9.25172 16.7011L9.61203 18.0787C9.64818 18.2146 9.73795 18.257 9.78283 18.2607C10.2565 18.3019 10.7329 18.3019 11.2066 18.2607C11.2515 18.257 11.3413 18.2159 11.3774 18.0787L11.7377 16.7011C11.921 16.0016 12.4222 15.4954 12.982 15.2187C13.1977 15.1114 13.4059 14.9905 13.6054 14.8571C14.1253 14.5105 14.8147 14.3297 15.5117 14.5205L16.8868 14.8982C17.0227 14.9344 17.105 14.8783 17.1299 14.8421C17.4042 14.4519 17.6424 14.0392 17.8443 13.6079C17.8618 13.5692 17.8705 13.4707 17.7708 13.371L16.7547 12.3661C16.2423 11.8599 16.054 11.173 16.0939 10.5508C16.1089 10.3092 16.1089 10.0668 16.0939 9.82521C16.054 9.20308 16.2423 8.51612 16.7547 8.00994L17.7708 7.00505C17.8718 6.90531 17.8618 6.80682 17.8443 6.76817C17.6431 6.33687 17.404 5.92424 17.1299 5.53513C17.105 5.49773 17.024 5.44038 16.8868 5.47778L15.5129 5.85555C14.8147 6.0463 14.1253 5.86552 13.6054 5.51892C13.4053 5.38495 13.1966 5.26417 12.9808 5.15737C12.4235 4.88059 11.921 4.37316 11.7377 3.67498L11.3774 2.29731C11.3413 2.16017 11.2515 2.11903 11.2066 2.11529C10.7329 2.07415 10.2565 2.07415 9.78283 2.11529ZM14.235 10.188C14.235 11.18 13.8409 12.1313 13.1395 12.8328C12.4381 13.5342 11.4867 13.9283 10.4947 13.9283C9.50275 13.9283 8.5514 13.5342 7.84997 12.8328C7.14853 12.1313 6.75447 11.18 6.75447 10.188C6.75447 9.19604 7.14853 8.24469 7.84997 7.54325C8.5514 6.84182 9.50275 6.44776 10.4947 6.44776C11.4867 6.44776 12.4381 6.84182 13.1395 7.54325C13.8409 8.24469 14.235 9.19604 14.235 10.188ZM12.3649 10.188C12.3647 9.69186 12.1674 9.21609 11.8165 8.86538C11.4655 8.51466 10.9896 8.31772 10.4935 8.31789C9.99733 8.31805 9.52156 8.51531 9.17084 8.86626C8.82013 9.21721 8.62319 9.69311 8.62335 10.1893C8.62352 10.6854 8.82077 11.1612 9.17173 11.5119C9.3455 11.6856 9.55177 11.8233 9.77878 11.9172C10.0058 12.0112 10.2491 12.0595 10.4947 12.0594C10.7404 12.0593 10.9837 12.0108 11.2106 11.9168C11.4375 11.8227 11.6437 11.6848 11.8174 11.511C11.991 11.3372 12.1288 11.131 12.2227 10.904C12.3166 10.677 12.3649 10.4337 12.3649 10.188Z"/>
</mask>
<path d="M10.4947 0.213989C10.7865 0.214396 11.0781 0.227291 11.3687 0.252639C12.295 0.332431 12.9758 1.01815 13.1877 1.8223L13.5468 3.20246C13.5692 3.28474 13.6453 3.39944 13.8111 3.48173C14.0991 3.62386 14.3771 3.78469 14.6439 3.96298C14.7973 4.06521 14.9344 4.07518 15.0167 4.0515L16.3919 3.67373C17.1948 3.4543 18.1274 3.69991 18.661 4.45918C18.9976 4.93918 19.2918 5.44661 19.5387 5.97773C19.9314 6.81929 19.6771 7.75061 19.0849 8.33534L18.07 9.34022C18.0089 9.40007 17.9478 9.5235 17.9603 9.70677C17.9802 10.0272 17.9802 10.3488 17.9603 10.6693C17.9478 10.8525 18.0077 10.976 18.07 11.0358L19.0849 12.0407C19.6771 12.6254 19.9314 13.5567 19.5387 14.3983C19.2913 14.9289 18.9976 15.4367 18.661 15.9156C18.1274 16.6761 17.1948 16.9217 16.3919 16.7011L15.018 16.3245C14.9344 16.3008 14.7973 16.3108 14.6439 16.4131C14.3771 16.5914 14.0989 16.7522 13.8111 16.8943C13.6453 16.9766 13.5692 17.0913 13.548 17.1736L13.1865 18.5525C12.977 19.3579 12.295 20.0436 11.3687 20.1234C10.7872 20.1745 10.2023 20.1745 9.62076 20.1234C8.69442 20.0436 8.01369 19.3579 7.80299 18.5525L7.44268 17.1736C7.42024 17.0913 7.34418 16.9766 7.17837 16.8943C6.89027 16.7528 6.61203 16.592 6.34553 16.4131C6.19218 16.3108 6.05504 16.3008 5.97276 16.3245L4.59759 16.7023C3.79468 16.9217 2.86211 16.6761 2.3285 15.9168C1.99254 15.437 1.69887 14.9289 1.45078 14.3983C1.05805 13.5567 1.31239 12.6254 1.90335 12.0407L2.91946 11.0358C2.98179 10.976 3.04164 10.8525 3.02917 10.6693C3.00922 10.3487 3.00922 10.0273 3.02917 9.70677C3.04164 9.5235 2.98179 9.40007 2.91946 9.34022L1.90335 8.33534C1.31239 7.75061 1.05805 6.81929 1.45078 5.97773C1.69779 5.44694 1.99152 4.93918 2.3285 4.46043C2.86211 3.69991 3.79468 3.4543 4.59759 3.67498L5.97151 4.0515C6.05504 4.07518 6.19218 4.06521 6.34553 3.96298C6.61234 3.78469 6.89037 3.62386 7.17837 3.48173C7.34418 3.39944 7.42024 3.28474 7.44143 3.20246L7.80299 1.82355C8.01244 1.01815 8.69442 0.332431 9.62076 0.251392C9.90876 0.226457 10.2005 0.213989 10.4947 0.213989ZM9.78283 2.11529C9.73795 2.11903 9.64818 2.16017 9.61203 2.29731L9.25172 3.67498C9.06844 4.37441 8.56725 4.88059 8.00746 5.15737C7.79177 5.26459 7.58356 5.38552 7.38408 5.51892C6.86418 5.86552 6.17473 6.0463 5.47779 5.85555L4.10263 5.47778C3.96673 5.44038 3.88444 5.49773 3.85951 5.53389C3.58522 5.92287 3.34585 6.33679 3.14512 6.76817C3.12766 6.80682 3.11894 6.90531 3.21868 7.00505L4.23478 8.00994C4.7472 8.51612 4.93546 9.20308 4.89556 9.82521C4.8806 10.0668 4.8806 10.3092 4.89556 10.5508C4.93546 11.173 4.7472 11.8599 4.23478 12.3661L3.21868 13.371C3.11769 13.4707 3.12766 13.5692 3.14512 13.6079C3.34709 14.0392 3.58522 14.4519 3.85951 14.8409C3.88444 14.8783 3.96548 14.9357 4.10263 14.8982L5.47655 14.5205C6.17473 14.3297 6.86418 14.5105 7.38408 14.8571C7.58481 14.9905 7.79302 15.1114 8.0087 15.2187C8.566 15.4954 9.06844 16.0029 9.25172 16.7011L9.61203 18.0787C9.64818 18.2146 9.73795 18.257 9.78283 18.2607C10.2565 18.3019 10.7329 18.3019 11.2066 18.2607C11.2515 18.257 11.3413 18.2159 11.3774 18.0787L11.7377 16.7011C11.921 16.0016 12.4222 15.4954 12.982 15.2187C13.1977 15.1114 13.4059 14.9905 13.6054 14.8571C14.1253 14.5105 14.8147 14.3297 15.5117 14.5205L16.8868 14.8982C17.0227 14.9344 17.105 14.8783 17.1299 14.8421C17.4042 14.4519 17.6424 14.0392 17.8443 13.6079C17.8618 13.5692 17.8705 13.4707 17.7708 13.371L16.7547 12.3661C16.2423 11.8599 16.054 11.173 16.0939 10.5508C16.1089 10.3092 16.1089 10.0668 16.0939 9.82521C16.054 9.20308 16.2423 8.51612 16.7547 8.00994L17.7708 7.00505C17.8718 6.90531 17.8618 6.80682 17.8443 6.76817C17.6431 6.33687 17.404 5.92424 17.1299 5.53513C17.105 5.49773 17.024 5.44038 16.8868 5.47778L15.5129 5.85555C14.8147 6.0463 14.1253 5.86552 13.6054 5.51892C13.4053 5.38495 13.1966 5.26417 12.9808 5.15737C12.4235 4.88059 11.921 4.37316 11.7377 3.67498L11.3774 2.29731C11.3413 2.16017 11.2515 2.11903 11.2066 2.11529C10.7329 2.07415 10.2565 2.07415 9.78283 2.11529ZM14.235 10.188C14.235 11.18 13.8409 12.1313 13.1395 12.8328C12.4381 13.5342 11.4867 13.9283 10.4947 13.9283C9.50275 13.9283 8.5514 13.5342 7.84997 12.8328C7.14853 12.1313 6.75447 11.18 6.75447 10.188C6.75447 9.19604 7.14853 8.24469 7.84997 7.54325C8.5514 6.84182 9.50275 6.44776 10.4947 6.44776C11.4867 6.44776 12.4381 6.84182 13.1395 7.54325C13.8409 8.24469 14.235 9.19604 14.235 10.188ZM12.3649 10.188C12.3647 9.69186 12.1674 9.21609 11.8165 8.86538C11.4655 8.51466 10.9896 8.31772 10.4935 8.31789C9.99733 8.31805 9.52156 8.51531 9.17084 8.86626C8.82013 9.21721 8.62319 9.69311 8.62335 10.1893C8.62352 10.6854 8.82077 11.1612 9.17173 11.5119C9.3455 11.6856 9.55177 11.8233 9.77878 11.9172C10.0058 12.0112 10.2491 12.0595 10.4947 12.0594C10.7404 12.0593 10.9837 12.0108 11.2106 11.9168C11.4375 11.8227 11.6437 11.6848 11.8174 11.511C11.991 11.3372 12.1288 11.131 12.2227 10.904C12.3166 10.677 12.3649 10.4337 12.3649 10.188Z" fill="#BEBEBE" stroke="#BEBEBE" stroke-width="1.66234" mask="url(#path-1-inside-1_198_1311)"/>
</g>
<defs>
<clipPath id="clip0_198_1311">
<rect width="19.9481" height="19.9481" fill="white" transform="translate(0.520703 0.213989)"/>
</clipPath>
</defs>
</svg>
