<svg width="20" height="21" viewBox="0 0 20 21" fill="none" xmlns="http://www.w3.org/2000/svg">
<g clip-path="url(#clip0_198_1313)">
<mask id="path-1-inside-1_198_1313" fill="white">
<path d="M9.97403 0.213989C10.2658 0.214396 10.5574 0.227291 10.848 0.252639C11.7743 0.332431 12.4551 1.01815 12.667 1.8223L13.0261 3.20246C13.0485 3.28474 13.1246 3.39944 13.2904 3.48173C13.5784 3.62386 13.8564 3.78469 14.1232 3.96298C14.2766 4.06521 14.4137 4.07518 14.496 4.0515L15.8712 3.67373C16.6741 3.4543 17.6066 3.69991 18.1403 4.45918C18.4769 4.93918 18.7711 5.44661 19.018 5.97773C19.4107 6.81929 19.1564 7.75061 18.5642 8.33534L17.5493 9.34022C17.4882 9.40007 17.4271 9.5235 17.4396 9.70677C17.4595 10.0272 17.4595 10.3488 17.4396 10.6693C17.4271 10.8525 17.487 10.976 17.5493 11.0358L18.5642 12.0407C19.1564 12.6254 19.4107 13.5567 19.018 14.3983C18.7706 14.9289 18.4769 15.4367 18.1403 15.9156C17.6066 16.6761 16.6741 16.9217 15.8712 16.7011L14.4972 16.3245C14.4137 16.3008 14.2766 16.3108 14.1232 16.4131C13.8564 16.5914 13.5782 16.7522 13.2904 16.8943C13.1246 16.9766 13.0485 17.0913 13.0273 17.1736L12.6658 18.5525C12.4563 19.3579 11.7743 20.0436 10.848 20.1234C10.2665 20.1745 9.68158 20.1745 9.10005 20.1234C8.17371 20.0436 7.49299 19.3579 7.28229 18.5525L6.92197 17.1736C6.89953 17.0913 6.82348 16.9766 6.65766 16.8943C6.36957 16.7528 6.09133 16.592 5.82483 16.4131C5.67148 16.3108 5.53434 16.3008 5.45205 16.3245L4.07688 16.7023C3.27397 16.9217 2.3414 16.6761 1.80779 15.9168C1.47184 15.437 1.17817 14.9289 0.930077 14.3983C0.537349 13.5567 0.791687 12.6254 1.38265 12.0407L2.39875 11.0358C2.46109 10.976 2.52093 10.8525 2.50847 10.6693C2.48852 10.3487 2.48852 10.0273 2.50847 9.70677C2.52093 9.5235 2.46109 9.40007 2.39875 9.34022L1.38265 8.33534C0.791687 7.75061 0.537349 6.81929 0.930077 5.97773C1.17709 5.44694 1.47082 4.93918 1.80779 4.46043C2.3414 3.69991 3.27397 3.4543 4.07688 3.67498L5.4508 4.0515C5.53434 4.07518 5.67148 4.06521 5.82483 3.96298C6.09164 3.78469 6.36966 3.62386 6.65766 3.48173C6.82348 3.39944 6.89953 3.28474 6.92073 3.20246L7.28229 1.82355C7.49174 1.01815 8.17371 0.332431 9.10005 0.251392C9.38805 0.226457 9.67979 0.213989 9.97403 0.213989ZM9.26213 2.11529C9.21725 2.11903 9.12748 2.16017 9.09132 2.29731L8.73101 3.67498C8.54774 4.37441 8.04655 4.88059 7.48675 5.15737C7.27106 5.26459 7.06286 5.38552 6.86338 5.51892C6.34348 5.86552 5.65403 6.0463 4.95709 5.85555L3.58192 5.47778C3.44602 5.44038 3.36374 5.49773 3.3388 5.53389C3.06452 5.92287 2.82514 6.33679 2.62441 6.76817C2.60696 6.80682 2.59823 6.90531 2.69797 7.00505L3.71408 8.00994C4.22649 8.51612 4.41475 9.20308 4.37486 9.82521C4.3599 10.0668 4.3599 10.3092 4.37486 10.5508C4.41475 11.173 4.22649 11.8599 3.71408 12.3661L2.69797 13.371C2.59699 13.4707 2.60696 13.5692 2.62441 13.6079C2.82639 14.0392 3.06452 14.4519 3.3388 14.8409C3.36374 14.8783 3.44478 14.9357 3.58192 14.8982L4.95584 14.5205C5.65402 14.3297 6.34348 14.5105 6.86338 14.8571C7.0641 14.9905 7.27231 15.1114 7.488 15.2187C8.0453 15.4954 8.54774 16.0029 8.73101 16.7011L9.09132 18.0787C9.12748 18.2146 9.21725 18.257 9.26213 18.2607C9.73584 18.3019 10.2122 18.3019 10.6859 18.2607C10.7308 18.257 10.8206 18.2159 10.8567 18.0787L11.217 16.7011C11.4003 16.0016 11.9015 15.4954 12.4613 15.2187C12.677 15.1114 12.8852 14.9905 13.0847 14.8571C13.6046 14.5105 14.294 14.3297 14.991 14.5205L16.3661 14.8982C16.502 14.9344 16.5843 14.8783 16.6092 14.8421C16.8835 14.4519 17.1217 14.0392 17.3236 13.6079C17.3411 13.5692 17.3498 13.4707 17.2501 13.371L16.234 12.3661C15.7216 11.8599 15.5333 11.173 15.5732 10.5508C15.5882 10.3092 15.5882 10.0668 15.5732 9.82521C15.5333 9.20308 15.7216 8.51612 16.234 8.00994L17.2501 7.00505C17.3511 6.90531 17.3411 6.80682 17.3236 6.76817C17.1224 6.33687 16.8833 5.92424 16.6092 5.53513C16.5843 5.49773 16.5033 5.44038 16.3661 5.47778L14.9922 5.85555C14.294 6.0463 13.6046 5.86552 13.0847 5.51892C12.8846 5.38495 12.6759 5.26417 12.4601 5.15737C11.9028 4.88059 11.4003 4.37316 11.217 3.67498L10.8567 2.29731C10.8206 2.16017 10.7308 2.11903 10.6859 2.11529C10.2122 2.07415 9.73584 2.07415 9.26213 2.11529ZM13.7143 10.188C13.7143 11.18 13.3202 12.1313 12.6188 12.8328C11.9174 13.5342 10.966 13.9283 9.97403 13.9283C8.98205 13.9283 8.0307 13.5342 7.32926 12.8328C6.62783 12.1313 6.23377 11.18 6.23377 10.188C6.23377 9.19604 6.62783 8.24469 7.32926 7.54325C8.0307 6.84182 8.98205 6.44776 9.97403 6.44776C10.966 6.44776 11.9174 6.84182 12.6188 7.54325C13.3202 8.24469 13.7143 9.19604 13.7143 10.188ZM11.8442 10.188C11.844 9.69186 11.6467 9.21609 11.2958 8.86538C10.9448 8.51466 10.4689 8.31772 9.97278 8.31789C9.47662 8.31805 9.00086 8.51531 8.65014 8.86626C8.29942 9.21721 8.10248 9.69311 8.10265 10.1893C8.10281 10.6854 8.30007 11.1612 8.65102 11.5119C8.82479 11.6856 9.03107 11.8233 9.25807 11.9172C9.48507 12.0112 9.72835 12.0595 9.97403 12.0594C10.2197 12.0593 10.4629 12.0108 10.6899 11.9168C10.9168 11.8227 11.123 11.6848 11.2967 11.511C11.4703 11.3372 11.6081 11.131 11.702 10.904C11.7959 10.677 11.8442 10.4337 11.8442 10.188Z"/>
</mask>
<path d="M9.97403 0.213989C10.2658 0.214396 10.5574 0.227291 10.848 0.252639C11.7743 0.332431 12.4551 1.01815 12.667 1.8223L13.0261 3.20246C13.0485 3.28474 13.1246 3.39944 13.2904 3.48173C13.5784 3.62386 13.8564 3.78469 14.1232 3.96298C14.2766 4.06521 14.4137 4.07518 14.496 4.0515L15.8712 3.67373C16.6741 3.4543 17.6066 3.69991 18.1403 4.45918C18.4769 4.93918 18.7711 5.44661 19.018 5.97773C19.4107 6.81929 19.1564 7.75061 18.5642 8.33534L17.5493 9.34022C17.4882 9.40007 17.4271 9.5235 17.4396 9.70677C17.4595 10.0272 17.4595 10.3488 17.4396 10.6693C17.4271 10.8525 17.487 10.976 17.5493 11.0358L18.5642 12.0407C19.1564 12.6254 19.4107 13.5567 19.018 14.3983C18.7706 14.9289 18.4769 15.4367 18.1403 15.9156C17.6066 16.6761 16.6741 16.9217 15.8712 16.7011L14.4972 16.3245C14.4137 16.3008 14.2766 16.3108 14.1232 16.4131C13.8564 16.5914 13.5782 16.7522 13.2904 16.8943C13.1246 16.9766 13.0485 17.0913 13.0273 17.1736L12.6658 18.5525C12.4563 19.3579 11.7743 20.0436 10.848 20.1234C10.2665 20.1745 9.68158 20.1745 9.10005 20.1234C8.17371 20.0436 7.49299 19.3579 7.28229 18.5525L6.92197 17.1736C6.89953 17.0913 6.82348 16.9766 6.65766 16.8943C6.36957 16.7528 6.09133 16.592 5.82483 16.4131C5.67148 16.3108 5.53434 16.3008 5.45205 16.3245L4.07688 16.7023C3.27397 16.9217 2.3414 16.6761 1.80779 15.9168C1.47184 15.437 1.17817 14.9289 0.930077 14.3983C0.537349 13.5567 0.791687 12.6254 1.38265 12.0407L2.39875 11.0358C2.46109 10.976 2.52093 10.8525 2.50847 10.6693C2.48852 10.3487 2.48852 10.0273 2.50847 9.70677C2.52093 9.5235 2.46109 9.40007 2.39875 9.34022L1.38265 8.33534C0.791687 7.75061 0.537349 6.81929 0.930077 5.97773C1.17709 5.44694 1.47082 4.93918 1.80779 4.46043C2.3414 3.69991 3.27397 3.4543 4.07688 3.67498L5.4508 4.0515C5.53434 4.07518 5.67148 4.06521 5.82483 3.96298C6.09164 3.78469 6.36966 3.62386 6.65766 3.48173C6.82348 3.39944 6.89953 3.28474 6.92073 3.20246L7.28229 1.82355C7.49174 1.01815 8.17371 0.332431 9.10005 0.251392C9.38805 0.226457 9.67979 0.213989 9.97403 0.213989ZM9.26213 2.11529C9.21725 2.11903 9.12748 2.16017 9.09132 2.29731L8.73101 3.67498C8.54774 4.37441 8.04655 4.88059 7.48675 5.15737C7.27106 5.26459 7.06286 5.38552 6.86338 5.51892C6.34348 5.86552 5.65403 6.0463 4.95709 5.85555L3.58192 5.47778C3.44602 5.44038 3.36374 5.49773 3.3388 5.53389C3.06452 5.92287 2.82514 6.33679 2.62441 6.76817C2.60696 6.80682 2.59823 6.90531 2.69797 7.00505L3.71408 8.00994C4.22649 8.51612 4.41475 9.20308 4.37486 9.82521C4.3599 10.0668 4.3599 10.3092 4.37486 10.5508C4.41475 11.173 4.22649 11.8599 3.71408 12.3661L2.69797 13.371C2.59699 13.4707 2.60696 13.5692 2.62441 13.6079C2.82639 14.0392 3.06452 14.4519 3.3388 14.8409C3.36374 14.8783 3.44478 14.9357 3.58192 14.8982L4.95584 14.5205C5.65402 14.3297 6.34348 14.5105 6.86338 14.8571C7.0641 14.9905 7.27231 15.1114 7.488 15.2187C8.0453 15.4954 8.54774 16.0029 8.73101 16.7011L9.09132 18.0787C9.12748 18.2146 9.21725 18.257 9.26213 18.2607C9.73584 18.3019 10.2122 18.3019 10.6859 18.2607C10.7308 18.257 10.8206 18.2159 10.8567 18.0787L11.217 16.7011C11.4003 16.0016 11.9015 15.4954 12.4613 15.2187C12.677 15.1114 12.8852 14.9905 13.0847 14.8571C13.6046 14.5105 14.294 14.3297 14.991 14.5205L16.3661 14.8982C16.502 14.9344 16.5843 14.8783 16.6092 14.8421C16.8835 14.4519 17.1217 14.0392 17.3236 13.6079C17.3411 13.5692 17.3498 13.4707 17.2501 13.371L16.234 12.3661C15.7216 11.8599 15.5333 11.173 15.5732 10.5508C15.5882 10.3092 15.5882 10.0668 15.5732 9.82521C15.5333 9.20308 15.7216 8.51612 16.234 8.00994L17.2501 7.00505C17.3511 6.90531 17.3411 6.80682 17.3236 6.76817C17.1224 6.33687 16.8833 5.92424 16.6092 5.53513C16.5843 5.49773 16.5033 5.44038 16.3661 5.47778L14.9922 5.85555C14.294 6.0463 13.6046 5.86552 13.0847 5.51892C12.8846 5.38495 12.6759 5.26417 12.4601 5.15737C11.9028 4.88059 11.4003 4.37316 11.217 3.67498L10.8567 2.29731C10.8206 2.16017 10.7308 2.11903 10.6859 2.11529C10.2122 2.07415 9.73584 2.07415 9.26213 2.11529ZM13.7143 10.188C13.7143 11.18 13.3202 12.1313 12.6188 12.8328C11.9174 13.5342 10.966 13.9283 9.97403 13.9283C8.98205 13.9283 8.0307 13.5342 7.32926 12.8328C6.62783 12.1313 6.23377 11.18 6.23377 10.188C6.23377 9.19604 6.62783 8.24469 7.32926 7.54325C8.0307 6.84182 8.98205 6.44776 9.97403 6.44776C10.966 6.44776 11.9174 6.84182 12.6188 7.54325C13.3202 8.24469 13.7143 9.19604 13.7143 10.188ZM11.8442 10.188C11.844 9.69186 11.6467 9.21609 11.2958 8.86538C10.9448 8.51466 10.4689 8.31772 9.97278 8.31789C9.47662 8.31805 9.00086 8.51531 8.65014 8.86626C8.29942 9.21721 8.10248 9.69311 8.10265 10.1893C8.10281 10.6854 8.30007 11.1612 8.65102 11.5119C8.82479 11.6856 9.03107 11.8233 9.25807 11.9172C9.48507 12.0112 9.72835 12.0595 9.97403 12.0594C10.2197 12.0593 10.4629 12.0108 10.6899 11.9168C10.9168 11.8227 11.123 11.6848 11.2967 11.511C11.4703 11.3372 11.6081 11.131 11.702 10.904C11.7959 10.677 11.8442 10.4337 11.8442 10.188Z" fill="white" stroke="white" stroke-width="1.66234" mask="url(#path-1-inside-1_198_1313)"/>
</g>
<defs>
<clipPath id="clip0_198_1313">
<rect width="19.9481" height="19.9481" fill="white" transform="translate(0 0.213989)"/>
</clipPath>
</defs>
</svg>
