<svg width="22" height="22" viewBox="0 0 22 22" fill="none" xmlns="http://www.w3.org/2000/svg">
<g clip-path="url(#clip0_240_1612)">
<path d="M19.3277 6.93019C19.3417 7.11944 19.3417 7.30762 19.3417 7.49579C19.3417 13.2545 14.9586 19.8903 6.94828 19.8903C4.48041 19.8903 2.18773 19.1755 0.258423 17.934C0.608813 17.974 0.946226 17.988 1.31068 17.988C3.27134 17.9928 5.17648 17.3372 6.71902 16.1269C5.80997 16.1104 4.92875 15.8105 4.19841 15.269C3.46806 14.7275 2.92505 13.9714 2.64519 13.1064C2.91447 13.1464 3.18483 13.1734 3.46817 13.1734C3.85858 13.1734 4.25114 13.1193 4.61559 13.0253C3.62905 12.8261 2.74195 12.2913 2.10513 11.512C1.46831 10.7326 1.12109 9.75672 1.1225 8.75027V8.6962C1.70324 9.01955 2.37699 9.22179 3.09074 9.24882C2.4928 8.85148 2.0025 8.31231 1.6636 7.67941C1.32469 7.04651 1.14771 6.33956 1.14846 5.62163C1.14846 4.81271 1.36367 4.07083 1.74109 3.42412C2.83567 4.77055 4.20086 5.87206 5.74823 6.65729C7.29561 7.44253 8.99067 7.894 10.7236 7.98244C10.6566 7.65801 10.6155 7.32167 10.6155 6.98426C10.6152 6.41213 10.7277 5.84556 10.9465 5.31692C11.1653 4.78829 11.4862 4.30797 11.8907 3.90341C12.2953 3.49885 12.7756 3.178 13.3042 2.95918C13.8329 2.74037 14.3994 2.62789 14.9716 2.62817C16.2261 2.62817 17.3583 3.15376 18.1543 4.00378C19.1295 3.81519 20.0647 3.45919 20.9185 2.95153C20.5934 3.95816 19.9125 4.81174 19.0032 5.35235C19.8682 5.2537 20.7135 5.02624 21.5111 4.67753C20.9154 5.54604 20.1772 6.30765 19.3277 6.93019Z" fill="white"/>
</g>
<defs>
<clipPath id="clip0_240_1612">
<rect width="21.3506" height="21.3506" fill="white" transform="translate(0.364258 0.583984)"/>
</clipPath>
</defs>
</svg>
