<svg width="25" height="24" viewBox="0 0 25 24" fill="none" xmlns="http://www.w3.org/2000/svg">
<path d="M19.0572 4H17.0572V3C17.0572 2.73478 16.9519 2.48043 16.7644 2.29289C16.5768 2.10536 16.3225 2 16.0572 2C15.792 2 15.5377 2.10536 15.3501 2.29289C15.1626 2.48043 15.0572 2.73478 15.0572 3V4L9.05724 4V3C9.05724 2.73478 8.95189 2.48043 8.76435 2.29289C8.57681 2.10536 8.32246 2 8.05724 2C7.79203 2 7.53767 2.10536 7.35014 2.29289C7.1626 2.48043 7.05724 2.73478 7.05724 3V4L5.05724 4C4.26159 4 3.49853 4.31607 2.93592 4.87868C2.37331 5.44129 2.05724 6.20435 2.05724 7L2.05724 19C2.05724 19.7956 2.37331 20.5587 2.93592 21.1213C3.49853 21.6839 4.26159 22 5.05724 22L19.0572 22C19.8529 22 20.616 21.6839 21.1786 21.1213C21.7412 20.5587 22.0572 19.7956 22.0572 19L22.0572 7C22.0572 6.20435 21.7412 5.44129 21.1786 4.87868C20.616 4.31607 19.8529 4 19.0572 4ZM20.0572 19C20.0572 19.2652 19.9519 19.5196 19.7644 19.7071C19.5768 19.8946 19.3225 20 19.0572 20L5.05724 20C4.79203 20 4.53767 19.8946 4.35014 19.7071C4.1626 19.5196 4.05724 19.2652 4.05724 19V12L20.0572 12L20.0572 19ZM20.0572 10L4.05724 10L4.05724 7C4.05724 6.73478 4.1626 6.48043 4.35014 6.29289C4.53767 6.10536 4.79203 6 5.05724 6H7.05724V7C7.05724 7.26522 7.1626 7.51957 7.35014 7.70711C7.53767 7.89464 7.79203 8 8.05724 8C8.32246 8 8.57681 7.89464 8.76435 7.70711C8.95189 7.51957 9.05724 7.26522 9.05724 7V6L15.0572 6V7C15.0572 7.26522 15.1626 7.51957 15.3501 7.70711C15.5377 7.89464 15.792 8 16.0572 8C16.3225 8 16.5768 7.89464 16.7644 7.70711C16.9519 7.51957 17.0572 7.26522 17.0572 7V6H19.0572C19.3225 6 19.5768 6.10536 19.7644 6.29289C19.9519 6.48043 20.0572 6.73478 20.0572 7V10Z" fill="white"/>
</svg>
