<svg width="25" height="24" viewBox="0 0 25 24" fill="none" xmlns="http://www.w3.org/2000/svg">
<path d="M4.3938 7.53556L4.3938 8.0936C4.3938 8.16761 4.42319 8.23858 4.47552 8.2909C4.52785 8.34323 4.59882 8.37263 4.67282 8.37263L5.50989 8.37263L5.50989 8.79116C5.50989 9.0223 5.69729 9.2097 5.92843 9.2097L19.6006 9.2097C19.8318 9.2097 20.0192 9.0223 20.0192 8.79117L20.0192 8.37263L20.8562 8.37263C20.9302 8.37263 21.0012 8.34323 21.0535 8.29091C21.1059 8.23858 21.1353 8.16761 21.1353 8.09361L21.1353 7.53556C21.1353 7.48036 21.1189 7.42639 21.0882 7.3805C21.0575 7.33461 21.0139 7.29885 20.9629 7.27774L12.8712 4.20847C12.8029 4.18018 12.7261 4.18018 12.6578 4.20847L4.56613 7.27774C4.51512 7.29884 4.47152 7.33461 4.44085 7.3805C4.41017 7.42639 4.3938 7.48035 4.3938 7.53556ZM5.23087 18.1385L20.2982 18.1385C20.7605 18.1385 21.1353 18.5132 21.1353 18.9756L21.1353 19.5336C21.1353 19.6076 21.1059 19.6786 21.0535 19.7309C21.0012 19.7832 20.9302 19.8126 20.8562 19.8126L4.67282 19.8126C4.59882 19.8126 4.52785 19.7832 4.47552 19.7309C4.42319 19.6786 4.3938 19.6076 4.3938 19.5336L4.3938 18.9756C4.3938 18.5132 4.76856 18.1385 5.23087 18.1385ZM18.345 9.76775L18.345 16.4643L19.6006 16.4643C19.8318 16.4643 20.0192 16.6517 20.0192 16.8829L20.0192 17.5804L5.50989 17.5804L5.50989 16.8829C5.50989 16.6517 5.69729 16.4643 5.92843 16.4643L7.18404 16.4643L7.18404 9.76775L9.41623 9.76775L9.41623 16.4643L11.6484 16.4643L11.6484 9.76775L13.8806 9.76775L13.8806 16.4643L16.1128 16.4643L16.1128 9.76775L18.345 9.76775Z" fill="white"/>
</svg>
