<svg width="14" height="14" viewBox="0 0 14 14" fill="none" xmlns="http://www.w3.org/2000/svg">
<path d="M12.8709 3.64124L10.6587 1.42901C10.37 1.1578 9.99164 1.00219 9.59565 0.99177C9.19966 0.98135 8.81366 1.11685 8.51107 1.37249L1.24462 8.63894C0.983641 8.90212 0.821146 9.24707 0.784406 9.61588L0.437231 12.9827C0.426355 13.1009 0.4417 13.2201 0.482171 13.3318C0.522643 13.4434 0.587245 13.5448 0.671373 13.6286C0.746815 13.7034 0.836286 13.7626 0.934655 13.8028C1.03302 13.843 1.13836 13.8633 1.24462 13.8627H1.31728L4.68407 13.5559C5.05288 13.5192 5.39783 13.3567 5.661 13.0957L12.9275 5.82925C13.2095 5.5313 13.3619 5.13369 13.3513 4.72357C13.3407 4.31344 13.168 3.92423 12.8709 3.64124V3.64124ZM10.1258 6.3379L7.96205 4.17411L9.53645 2.55934L11.7406 4.7635L10.1258 6.3379Z" fill="#8764DE"/>
</svg>
