<svg width="42" height="42" viewBox="0 0 42 42" fill="none" xmlns="http://www.w3.org/2000/svg">
<g clip-path="url(#clip0_267_1535)">
<path d="M41.474 0.513794H0.0123067C0.00559417 0.513794 0.000152588 0.519236 0.000152588 0.525948V41.9877C0.000152588 41.9944 0.00559417 41.9998 0.0123067 41.9998H41.474C41.4808 41.9998 41.4862 41.9944 41.4862 41.9877V0.525948C41.4862 0.519236 41.4808 0.513794 41.474 0.513794Z" fill="#45D354"/>
<path d="M24.9575 22.6341C24.7144 22.472 24.4713 22.391 24.2282 22.7151L23.2559 24.0115C23.0128 24.1736 22.8508 24.2546 22.5267 24.0926C21.3112 23.4443 19.6097 22.7151 18.1512 20.2843C18.0701 19.9602 18.2322 19.7981 18.3943 19.636L19.1235 18.5017C19.2856 18.3396 19.2045 18.1776 19.1235 18.0155L18.1512 15.6657C17.9081 15.0175 17.665 15.0985 17.4219 15.0985H16.7737C16.6117 15.0985 16.2875 15.1795 15.9634 15.5037C14.1808 17.2863 14.9101 19.7981 16.2065 21.4187C16.4496 21.7428 18.0701 24.6597 21.5543 26.1993C24.1472 27.3337 24.7144 27.1716 25.4436 27.0095C26.3349 26.9285 27.2262 26.1993 27.6314 25.47C27.7124 25.2269 28.1176 24.1736 27.7934 24.0115M21.3923 31.6281C18.0701 31.6281 15.5583 29.8455 15.5583 29.8455L11.588 30.8989L12.5603 27.0095C12.5603 27.0095 10.9397 24.4977 10.9397 21.3376C10.9397 15.5037 15.7204 10.642 21.6354 10.642C27.1452 10.642 31.8448 14.9365 31.8448 20.9325C31.8448 26.7665 27.1452 31.5471 21.3923 31.6281ZM8.50891 33.9779L15.2342 32.1143C17.1819 33.1114 19.3528 33.5927 21.5395 33.5122C23.7261 33.4316 25.8557 32.792 27.7248 31.6543C29.5939 30.5165 31.1402 28.9187 32.2162 27.0133C33.2921 25.1079 33.8616 22.9586 33.8705 20.7704C33.8705 13.8021 28.3606 8.21118 21.3923 8.21118C19.1557 8.2169 16.9596 8.80846 15.0228 9.92694C13.086 11.0454 11.4759 12.6518 10.3531 14.5861C9.23018 16.5204 8.63364 18.7151 8.62284 20.9517C8.61204 23.1882 9.18737 25.3886 10.2915 27.3337" fill="white"/>
</g>
<defs>
<clipPath id="clip0_267_1535">
<rect y="0.513916" width="41.486" height="41.486" rx="20.743" fill="white"/>
</clipPath>
</defs>
</svg>
