<svg width="24" height="25" viewBox="0 0 24 25" fill="none" xmlns="http://www.w3.org/2000/svg">
<path fill-rule="evenodd" clip-rule="evenodd" d="M17 7.5C17 6.70435 16.6839 5.94129 16.1213 5.37868C15.5587 4.81607 14.7956 4.5 14 4.5H10C9.20435 4.5 8.44129 4.81607 7.87868 5.37868C7.31607 5.94129 7 6.70435 7 7.5H6C5.20435 7.5 4.44129 7.81607 3.87868 8.37868C3.31607 8.94129 3 9.70435 3 10.5V18.5C3 19.2956 3.31607 20.0587 3.87868 20.6213C4.44129 21.1839 5.20435 21.5 6 21.5H18C18.7956 21.5 19.5587 21.1839 20.1213 20.6213C20.6839 20.0587 21 19.2956 21 18.5V10.5C21 9.70435 20.6839 8.94129 20.1213 8.37868C19.5587 7.81607 18.7956 7.5 18 7.5H17ZM14 6.5H10C9.73478 6.5 9.48043 6.60536 9.29289 6.79289C9.10536 6.98043 9 7.23478 9 7.5H15C15 7.23478 14.8946 6.98043 14.7071 6.79289C14.5196 6.60536 14.2652 6.5 14 6.5ZM6 9.5H18C18.2652 9.5 18.5196 9.60536 18.7071 9.79289C18.8946 9.98043 19 10.2348 19 10.5V18.5C19 18.7652 18.8946 19.0196 18.7071 19.2071C18.5196 19.3946 18.2652 19.5 18 19.5H6C5.73478 19.5 5.48043 19.3946 5.29289 19.2071C5.10536 19.0196 5 18.7652 5 18.5V10.5C5 10.2348 5.10536 9.98043 5.29289 9.79289C5.48043 9.60536 5.73478 9.5 6 9.5Z" fill="#BEBEBE"/>
</svg>
