<svg width="28" height="28" viewBox="0 0 28 28" fill="none" xmlns="http://www.w3.org/2000/svg">
<path fill-rule="evenodd" clip-rule="evenodd" d="M19.2845 8.62918C19.2845 7.74012 18.9313 6.88748 18.3027 6.25882C17.674 5.63016 16.8213 5.27698 15.9323 5.27698H11.4627C10.5736 5.27698 9.72098 5.63016 9.09231 6.25882C8.46365 6.88748 8.11048 7.74012 8.11048 8.62918H6.99307C6.10401 8.62918 5.25137 8.98236 4.62271 9.61102C3.99405 10.2397 3.64087 11.0923 3.64087 11.9814V20.9206C3.64087 21.8097 3.99405 22.6623 4.62271 23.291C5.25137 23.9196 6.10401 24.2728 6.99307 24.2728H20.4019C21.291 24.2728 22.1436 23.9196 22.7723 23.291C23.4009 22.6623 23.7541 21.8097 23.7541 20.9206V11.9814C23.7541 11.0923 23.4009 10.2397 22.7723 9.61102C22.1436 8.98236 21.291 8.62918 20.4019 8.62918H19.2845ZM15.9323 7.51178H11.4627C11.1663 7.51178 10.8821 7.62951 10.6726 7.83906C10.463 8.04861 10.3453 8.33283 10.3453 8.62918H17.0497C17.0497 8.33283 16.932 8.04861 16.7224 7.83906C16.5129 7.62951 16.2286 7.51178 15.9323 7.51178ZM6.99307 10.864H20.4019C20.6982 10.864 20.9825 10.9817 21.192 11.1913C21.4016 11.4008 21.5193 11.685 21.5193 11.9814V20.9206C21.5193 21.217 21.4016 21.5012 21.192 21.7107C20.9825 21.9203 20.6982 22.038 20.4019 22.038H6.99307C6.69672 22.038 6.41251 21.9203 6.20295 21.7107C5.9934 21.5012 5.87567 21.217 5.87567 20.9206V11.9814C5.87567 11.685 5.9934 11.4008 6.20295 11.1913C6.41251 10.9817 6.69672 10.864 6.99307 10.864Z" fill="#7A47AB"/>
</svg>
