<svg width="25" height="25" viewBox="0 0 25 25" fill="none" xmlns="http://www.w3.org/2000/svg">
<path fill-rule="evenodd" clip-rule="evenodd" d="M17.0572 7.5C17.0572 6.70435 16.7412 5.94129 16.1786 5.37868C15.616 4.81607 14.8529 4.5 14.0572 4.5H10.0572C9.26159 4.5 8.49853 4.81607 7.93592 5.37868C7.37331 5.94129 7.05724 6.70435 7.05724 7.5H6.05724C5.26159 7.5 4.49853 7.81607 3.93592 8.37868C3.37331 8.94129 3.05724 9.70435 3.05724 10.5V18.5C3.05724 19.2956 3.37331 20.0587 3.93592 20.6213C4.49853 21.1839 5.26159 21.5 6.05724 21.5H18.0572C18.8529 21.5 19.616 21.1839 20.1786 20.6213C20.7412 20.0587 21.0572 19.2956 21.0572 18.5V10.5C21.0572 9.70435 20.7412 8.94129 20.1786 8.37868C19.616 7.81607 18.8529 7.5 18.0572 7.5H17.0572ZM14.0572 6.5H10.0572C9.79203 6.5 9.53767 6.60536 9.35014 6.79289C9.1626 6.98043 9.05724 7.23478 9.05724 7.5H15.0572C15.0572 7.23478 14.9519 6.98043 14.7643 6.79289C14.5768 6.60536 14.3225 6.5 14.0572 6.5ZM6.05724 9.5H18.0572C18.3225 9.5 18.5768 9.60536 18.7644 9.79289C18.9519 9.98043 19.0572 10.2348 19.0572 10.5V18.5C19.0572 18.7652 18.9519 19.0196 18.7644 19.2071C18.5768 19.3946 18.3225 19.5 18.0572 19.5H6.05724C5.79203 19.5 5.53767 19.3946 5.35014 19.2071C5.1626 19.0196 5.05724 18.7652 5.05724 18.5V10.5C5.05724 10.2348 5.1626 9.98043 5.35014 9.79289C5.53767 9.60536 5.79203 9.5 6.05724 9.5Z" fill="white"/>
</svg>
